<svg xmlns="http://www.w3.org/2000/svg" viewBox="0 0 760 560" role="img" aria-label="Editor introduction">
  <defs>
    <linearGradient id="bg" x1="0" x2="1" y1="0" y2="1">
      <stop offset="0" stop-color="#eff6ff"/>
      <stop offset=".54" stop-color="#f8fafc"/>
      <stop offset="1" stop-color="#f0fdfa"/>
    </linearGradient>
    <linearGradient id="glass" x1="0" x2="1" y1="0" y2="1">
      <stop offset="0" stop-color="#ffffff" stop-opacity=".84"/>
      <stop offset="1" stop-color="#ffffff" stop-opacity=".42"/>
    </linearGradient>
    <filter id="shadow" x="-20%" y="-20%" width="140%" height="150%">
      <feDropShadow dx="0" dy="24" stdDeviation="28" flood-color="#0f172a" flood-opacity=".18"/>
    </filter>
  </defs>
  <rect width="760" height="560" rx="42" fill="url(#bg)"/>
  <rect x="86" y="88" width="588" height="384" rx="34" fill="url(#glass)" stroke="#fff" stroke-opacity=".82" filter="url(#shadow)"/>
  <rect x="124" y="122" width="512" height="54" rx="22" fill="#fff" stroke="#d1d5db"/>
  <circle cx="158" cy="149" r="14" fill="#f8fafc" stroke="#cbd5e1"/>
  <rect x="196" y="139" width="132" height="18" rx="9" fill="#111827" opacity=".26"/>
  <rect x="384" y="132" width="130" height="34" rx="17" fill="#f8fafc" stroke="#cbd5e1"/>
  <rect x="528" y="132" width="78" height="34" rx="17" fill="#111827"/>
  <rect x="126" y="210" width="98" height="202" rx="26" fill="#fff" stroke="#d1d5db"/>
  <rect x="148" y="238" width="54" height="54" rx="18" fill="#dbeafe"/>
  <rect x="148" y="308" width="54" height="54" rx="18" fill="#ccfbf1"/>
  <rect x="266" y="206" width="282" height="214" rx="34" fill="#0f172a" opacity=".88"/>
  <path d="M310 352l54-74 42 44 30-28 70 58" fill="none" stroke="#67e8f9" stroke-width="16" stroke-linecap="round" stroke-linejoin="round"/>
  <circle cx="346" cy="266" r="18" fill="#fef3c7"/>
  <path d="M428 278c34 22 52 56 42 86" fill="none" stroke="#fb7185" stroke-width="14" stroke-linecap="round" stroke-dasharray="18 16"/>
  <rect x="574" y="232" width="62" height="126" rx="20" fill="#fff" stroke="#d1d5db"/>
  <rect x="592" y="252" width="26" height="26" rx="13" fill="#ccfbf1"/>
  <rect x="592" y="294" width="26" height="26" rx="13" fill="#fee2e2"/>
  <rect x="276" y="444" width="264" height="42" rx="21" fill="#fff" stroke="#d1d5db"/>
  <rect x="304" y="459" width="136" height="12" rx="6" fill="#111827" opacity=".22"/>
  <circle cx="510" cy="465" r="14" fill="#111827"/>
</svg>
