<svg xmlns="http://www.w3.org/2000/svg" viewBox="0 0 760 560" role="img" aria-label="Cases page introduction">
  <defs>
    <linearGradient id="bg" x1="0" x2="1" y1="0" y2="1">
      <stop offset="0" stop-color="#f5f3ff"/>
      <stop offset=".52" stop-color="#f8fafc"/>
      <stop offset="1" stop-color="#ecfeff"/>
    </linearGradient>
    <filter id="shadow" x="-20%" y="-20%" width="140%" height="150%">
      <feDropShadow dx="0" dy="24" stdDeviation="28" flood-color="#0f172a" flood-opacity=".16"/>
    </filter>
  </defs>
  <rect width="760" height="560" rx="42" fill="url(#bg)"/>
  <rect x="110" y="82" width="540" height="396" rx="34" fill="#fff" opacity=".54" stroke="#fff" filter="url(#shadow)"/>
  <rect x="148" y="122" width="158" height="18" rx="9" fill="#111827" opacity=".72"/>
  <rect x="148" y="160" width="98" height="30" rx="15" fill="#ede9fe" stroke="#c4b5fd"/>
  <rect x="258" y="160" width="84" height="30" rx="15" fill="#fff" stroke="#ddd6fe"/>
  <rect x="354" y="160" width="96" height="30" rx="15" fill="#fff" stroke="#ddd6fe"/>
  <rect x="148" y="226" width="138" height="158" rx="24" fill="#f5f3ff" stroke="#c4b5fd"/>
  <rect x="310" y="226" width="138" height="158" rx="24" fill="#ecfeff" stroke="#67e8f9"/>
  <rect x="472" y="226" width="138" height="158" rx="24" fill="#fff7ed" stroke="#fdba74"/>
  <path d="M178 322l30-44 28 32 18-18 22 30" fill="none" stroke="#7c3aed" stroke-width="10" stroke-linecap="round" stroke-linejoin="round"/>
  <path d="M340 322l30-44 28 32 18-18 22 30" fill="none" stroke="#0891b2" stroke-width="10" stroke-linecap="round" stroke-linejoin="round"/>
  <path d="M502 322l30-44 28 32 18-18 22 30" fill="none" stroke="#ea580c" stroke-width="10" stroke-linecap="round" stroke-linejoin="round"/>
  <rect x="158" y="404" width="106" height="12" rx="6" fill="#111827" opacity=".18"/>
  <rect x="320" y="404" width="106" height="12" rx="6" fill="#111827" opacity=".18"/>
  <rect x="482" y="404" width="106" height="12" rx="6" fill="#111827" opacity=".18"/>
</svg>
