<svg xmlns="http://www.w3.org/2000/svg" viewBox="0 0 760 560" role="img" aria-label="My images page introduction">
  <defs>
    <linearGradient id="bg" x1="0" x2="1" y1="0" y2="1">
      <stop offset="0" stop-color="#fff1f2"/>
      <stop offset=".52" stop-color="#f8fafc"/>
      <stop offset="1" stop-color="#eff6ff"/>
    </linearGradient>
    <filter id="shadow" x="-20%" y="-20%" width="140%" height="150%">
      <feDropShadow dx="0" dy="24" stdDeviation="28" flood-color="#0f172a" flood-opacity=".16"/>
    </filter>
  </defs>
  <rect width="760" height="560" rx="42" fill="url(#bg)"/>
  <rect x="108" y="82" width="544" height="396" rx="34" fill="#fff" opacity=".54" stroke="#fff" filter="url(#shadow)"/>
  <rect x="148" y="122" width="128" height="18" rx="9" fill="#111827" opacity=".72"/>
  <rect x="148" y="164" width="120" height="30" rx="15" fill="#ffe4e6" stroke="#fda4af"/>
  <rect x="282" y="164" width="92" height="30" rx="15" fill="#fff" stroke="#fecdd3"/>
  <rect x="148" y="230" width="138" height="176" rx="24" fill="#ffe4e6" stroke="#fda4af"/>
  <rect x="310" y="230" width="138" height="176" rx="24" fill="#dbeafe" stroke="#93c5fd"/>
  <rect x="472" y="230" width="138" height="176" rx="24" fill="#dcfce7" stroke="#86efac"/>
  <circle cx="254" cy="260" r="16" fill="#fff" opacity=".86"/>
  <path d="M176 348l34-48 28 28 20-18 22 38" fill="none" stroke="#e11d48" stroke-width="11" stroke-linecap="round" stroke-linejoin="round"/>
  <path d="M338 348l34-48 28 28 20-18 22 38" fill="none" stroke="#2563eb" stroke-width="11" stroke-linecap="round" stroke-linejoin="round"/>
  <path d="M500 348l34-48 28 28 20-18 22 38" fill="none" stroke="#16a34a" stroke-width="11" stroke-linecap="round" stroke-linejoin="round"/>
  <rect x="174" y="424" width="38" height="28" rx="14" fill="#111827"/>
  <rect x="222" y="424" width="38" height="28" rx="14" fill="#fff" stroke="#fecdd3"/>
  <rect x="336" y="424" width="38" height="28" rx="14" fill="#111827"/>
  <rect x="384" y="424" width="38" height="28" rx="14" fill="#fff" stroke="#bfdbfe"/>
  <rect x="498" y="424" width="38" height="28" rx="14" fill="#111827"/>
  <rect x="546" y="424" width="38" height="28" rx="14" fill="#fff" stroke="#bbf7d0"/>
</svg>
